<?xml version="1.0" encoding="UTF-8"?>
<svg xmlns="http://www.w3.org/2000/svg" viewBox="0 0 512 512" fill="none">
  <defs>
    <radialGradient id="bg" cx="30%" cy="18%" r="90%">
      <stop offset="0%" stop-color="#241b38" />
      <stop offset="72%" stop-color="#0b0812" />
    </radialGradient>
  </defs>
  <rect width="512" height="512" fill="#0C0A14" />
  <rect width="512" height="512" fill="url(#bg)" />
  <path d="M 132.9068515310458 379.0931484689542 A 174.08 174.08 0 0 1 100.89358426928888 176.96933380533977 L 184.83352690002664 219.73887080480296 A 79.872 79.872 0 0 0 199.52196717306808 312.47803282693195 Z" fill="#28d7f0" />
  <path d="M 100.89358426928888 176.96933380533977 A 174.08 174.08 0 0 1 283.23211167420334 84.0632136691984 L 268.4947335916933 177.11135685998516 A 79.872 79.872 0 0 0 184.83352690002664 219.73887080480296 Z" fill="#8b5cf6" />
  <path d="M 283.23211167420334 84.0632136691984 A 174.08 174.08 0 0 1 427.93678633080157 228.76788832579658 L 334.88864314001484 243.50526640830665 A 79.872 79.872 0 0 0 268.4947335916933 177.11135685998516 Z" fill="#ff4d8d" />
  <path d="M 427.93678633080157 228.76788832579658 A 174.08 174.08 0 0 1 335.03066619466034 411.1064157307111 L 292.2611291951971 327.1664730999733 A 79.872 79.872 0 0 0 334.88864314001484 243.50526640830665 Z" fill="#ffb020" />
  <path d="M 335.03066619466034 411.1064157307111 A 174.08 174.08 0 0 1 132.90685153104573 379.09314846895415 L 199.52196717306805 312.4780328269319 A 79.872 79.872 0 0 0 292.2611291951971 327.1664730999733 Z" fill="#34e0c4" />
  <circle cx="256" cy="256" r="44.032" fill="#ffffff" />
</svg>